<svg width="19" height="37" xmlns="http://www.w3.org/2000/svg"><path d="M5.762 30.782c.239.493.478.985.956.985.24 0 .479 0 .24-.246-.24-.493-.479-.739-.957-1.231-.24-.986-.718-1.724-1.674-2.956 0 1.724.478 2.71 1.435 3.448M6.718 0c.24.246.479.493.718.493 2.391 4.678 5.022 9.111 7.652 13.544 1.435 2.216 2.391 4.678 3.109 7.141 1.196 3.694 1.196 7.388-.957 10.835-1.674 2.71-4.065 4.433-7.174 4.925-1.913.247-3.587-.246-5.022-1.477C1.457 32.013-.216 27.827.022 22.9c.24-3.447 1.435-6.648 2.63-9.603.718-1.97 1.436-3.694 2.153-5.418C5.762 5.171 6.718 2.71 6.718 0" fill="#E2192C" fill-rule="evenodd"/></svg>